<svg id="visual" viewBox="0 0 900 600" width="900" height="600" xmlns="http://www.w3.org/2000/svg" xmlns:xlink="http://www.w3.org/1999/xlink" version="1.1"><g stroke-width="1" stroke-linejoin="bevel"><path d="M456 305.9L484 318L486 303Z" fill="#1f5675" stroke="#1f5675"></path><path d="M425 375.9L499 340.9L484 318Z" fill="#113046" stroke="#113046"></path><path d="M484 318L520 290L486 303Z" fill="#0d273b" stroke="#0d273b"></path><path d="M520 290L499 267.1L486 303Z" fill="#225f81" stroke="#225f81"></path><path d="M486 303L437 271.1L456 305.9Z" fill="#27749a" stroke="#27749a"></path><path d="M499 267.1L437 271.1L486 303Z" fill="#225f81" stroke="#225f81"></path><path d="M512 343.7L520 290L484 318Z" fill="#113046" stroke="#113046"></path><path d="M499 340.9L512 343.7L484 318Z" fill="#1f5675" stroke="#1f5675"></path><path d="M558 301L521 286.1L520 290Z" fill="#27749a" stroke="#27749a"></path><path d="M520 290L521 286.1L499 267.1Z" fill="#091f30" stroke="#091f30"></path><path d="M499 267.1L454 237.1L437 271.1Z" fill="#1c4c69" stroke="#1c4c69"></path><path d="M389 311L393 320.9L456 305.9Z" fill="#27749a" stroke="#27749a"></path><path d="M456 305.9L425 375.9L484 318Z" fill="#153951" stroke="#153951"></path><path d="M499 340.9L496 422.7L512 343.7Z" fill="#091f30" stroke="#091f30"></path><path d="M389 311L456 305.9L437 271.1Z" fill="#225f81" stroke="#225f81"></path><path d="M397 352.7L425 375.9L456 305.9Z" fill="#0d273b" stroke="#0d273b"></path><path d="M363 294L389 311L437 271.1Z" fill="#0d273b" stroke="#0d273b"></path><path d="M408 407.6L427 381.6L425 375.9Z" fill="#25698d" stroke="#25698d"></path><path d="M425 375.9L463 405.6L499 340.9Z" fill="#27749a" stroke="#27749a"></path><path d="M383 337L397 352.7L393 320.9Z" fill="#153951" stroke="#153951"></path><path d="M393 320.9L397 352.7L456 305.9Z" fill="#113046" stroke="#113046"></path><path d="M512 343.7L558 301L520 290Z" fill="#297ea6" stroke="#297ea6"></path><path d="M521 286.1L539 252.3L499 267.1Z" fill="#27749a" stroke="#27749a"></path><path d="M499 267.1L493 218.4L454 237.1Z" fill="#1c4c69" stroke="#1c4c69"></path><path d="M558 301L539 252.3L521 286.1Z" fill="#27749a" stroke="#27749a"></path><path d="M539 252.3L515 230.3L499 267.1Z" fill="#0d273b" stroke="#0d273b"></path><path d="M515 230.3L493 218.4L499 267.1Z" fill="#1c4c69" stroke="#1c4c69"></path><path d="M389 311L383 337L393 320.9Z" fill="#25698d" stroke="#25698d"></path><path d="M496 422.7L548 361.7L512 343.7Z" fill="#1f5675" stroke="#1f5675"></path><path d="M512 343.7L548 361.7L558 301Z" fill="#0d273b" stroke="#0d273b"></path><path d="M427 381.6L463 405.6L425 375.9Z" fill="#225f81" stroke="#225f81"></path><path d="M351 343.7L373 345.7L383 337Z" fill="#091f30" stroke="#091f30"></path><path d="M383 337L373 345.7L397 352.7Z" fill="#25698d" stroke="#25698d"></path><path d="M397 352.7L408 407.6L425 375.9Z" fill="#153951" stroke="#153951"></path><path d="M427 381.6L408 407.6L463 405.6Z" fill="#25698d" stroke="#25698d"></path><path d="M352 263.1L363 294L437 271.1Z" fill="#091f30" stroke="#091f30"></path><path d="M389 311L363 294L383 337Z" fill="#297ea6" stroke="#297ea6"></path><path d="M496 422.7L566 376.9L548 361.7Z" fill="#27749a" stroke="#27749a"></path><path d="M548 361.7L610 325L558 301Z" fill="#1f5675" stroke="#1f5675"></path><path d="M463 405.6L496 422.7L499 340.9Z" fill="#0d273b" stroke="#0d273b"></path><path d="M373 345.7L408 407.6L397 352.7Z" fill="#297ea6" stroke="#297ea6"></path><path d="M463 405.6L478 452.4L496 422.7Z" fill="#225f81" stroke="#225f81"></path><path d="M626 302.9L571 237.1L558 301Z" fill="#153951" stroke="#153951"></path><path d="M558 301L571 237.1L539 252.3Z" fill="#297ea6" stroke="#297ea6"></path><path d="M539 252.3L571 237.1L515 230.3Z" fill="#297ea6" stroke="#297ea6"></path><path d="M533 163.3L494 154.4L493 218.4Z" fill="#091f30" stroke="#091f30"></path><path d="M363 294L351 343.7L383 337Z" fill="#1f5675" stroke="#1f5675"></path><path d="M373 345.7L351 343.7L408 407.6Z" fill="#153951" stroke="#153951"></path><path d="M375 202.3L437 271.1L454 237.1Z" fill="#113046" stroke="#113046"></path><path d="M375 202.3L352 263.1L437 271.1Z" fill="#1c4c69" stroke="#1c4c69"></path><path d="M363 294L345 278.1L351 343.7Z" fill="#25698d" stroke="#25698d"></path><path d="M352 263.1L345 278.1L363 294Z" fill="#297ea6" stroke="#297ea6"></path><path d="M566 376.9L610 325L548 361.7Z" fill="#297ea6" stroke="#297ea6"></path><path d="M403 182.3L375 202.3L454 237.1Z" fill="#091f30" stroke="#091f30"></path><path d="M352 263.1L291 259.1L345 278.1Z" fill="#297ea6" stroke="#297ea6"></path><path d="M459 145.6L403 182.3L454 237.1Z" fill="#297ea6" stroke="#297ea6"></path><path d="M459 145.6L454 237.1L493 218.4Z" fill="#1c4c69" stroke="#1c4c69"></path><path d="M408 407.6L478 452.4L463 405.6Z" fill="#1c4c69" stroke="#1c4c69"></path><path d="M496 422.7L568 430.6L566 376.9Z" fill="#25698d" stroke="#25698d"></path><path d="M610 325L626 302.9L558 301Z" fill="#091f30" stroke="#091f30"></path><path d="M548 445.4L568 430.6L496 422.7Z" fill="#27749a" stroke="#27749a"></path><path d="M566 376.9L623 345.7L610 325Z" fill="#225f81" stroke="#225f81"></path><path d="M610 325L623 345.7L626 302.9Z" fill="#0d273b" stroke="#0d273b"></path><path d="M533 163.3L493 218.4L515 230.3Z" fill="#153951" stroke="#153951"></path><path d="M630 357.7L623 345.7L566 376.9Z" fill="#1c4c69" stroke="#1c4c69"></path><path d="M545 460.6L548 445.4L496 422.7Z" fill="#1f5675" stroke="#1f5675"></path><path d="M581 431.4L581 421.4L568 430.6Z" fill="#0d273b" stroke="#0d273b"></path><path d="M568 430.6L581 421.4L566 376.9Z" fill="#153951" stroke="#153951"></path><path d="M571 237.1L533 163.3L515 230.3Z" fill="#225f81" stroke="#225f81"></path><path d="M628 216.1L533 163.3L571 237.1Z" fill="#1f5675" stroke="#1f5675"></path><path d="M337 161.6L344 210.3L375 202.3Z" fill="#113046" stroke="#113046"></path><path d="M375 202.3L344 210.3L352 263.1Z" fill="#297ea6" stroke="#297ea6"></path><path d="M428 123.4L459 145.6L488 118.6Z" fill="#27749a" stroke="#27749a"></path><path d="M494 154.4L459 145.6L493 218.4Z" fill="#27749a" stroke="#27749a"></path><path d="M403 182.3L378 158.4L375 202.3Z" fill="#113046" stroke="#113046"></path><path d="M589 451.6L581 431.4L568 430.6Z" fill="#225f81" stroke="#225f81"></path><path d="M637 371.9L630 357.7L566 376.9Z" fill="#1c4c69" stroke="#1c4c69"></path><path d="M637 371.9L566 376.9L581 421.4Z" fill="#113046" stroke="#113046"></path><path d="M623 345.7L679 307.9L626 302.9Z" fill="#091f30" stroke="#091f30"></path><path d="M478 452.4L545 460.6L496 422.7Z" fill="#27749a" stroke="#27749a"></path><path d="M548 445.4L589 451.6L568 430.6Z" fill="#0d273b" stroke="#0d273b"></path><path d="M351 343.7L378 449.6L408 407.6Z" fill="#153951" stroke="#153951"></path><path d="M408 407.6L439 487.3L478 452.4Z" fill="#297ea6" stroke="#297ea6"></path><path d="M478 452.4L522 498.4L545 460.6Z" fill="#0d273b" stroke="#0d273b"></path><path d="M679 307.9L641 284.1L626 302.9Z" fill="#091f30" stroke="#091f30"></path><path d="M626 302.9L641 284.1L571 237.1Z" fill="#0d273b" stroke="#0d273b"></path><path d="M337 161.6L318 224.3L344 210.3Z" fill="#153951" stroke="#153951"></path><path d="M344 210.3L318 224.3L352 263.1Z" fill="#091f30" stroke="#091f30"></path><path d="M290 329.9L301 350.9L351 343.7Z" fill="#1f5675" stroke="#1f5675"></path><path d="M351 343.7L354 456.6L378 449.6Z" fill="#1c4c69" stroke="#1c4c69"></path><path d="M290 329.9L351 343.7L345 278.1Z" fill="#1f5675" stroke="#1f5675"></path><path d="M428 123.4L378 158.4L403 182.3Z" fill="#091f30" stroke="#091f30"></path><path d="M669 391.6L637 371.9L650 451.6Z" fill="#225f81" stroke="#225f81"></path><path d="M630 357.7L665 365.9L623 345.7Z" fill="#225f81" stroke="#225f81"></path><path d="M378 449.6L439 487.3L408 407.6Z" fill="#0d273b" stroke="#0d273b"></path><path d="M631 219.4L628 216.1L571 237.1Z" fill="#19425d" stroke="#19425d"></path><path d="M291 259.1L290 329.9L345 278.1Z" fill="#113046" stroke="#113046"></path><path d="M641 284.1L631 219.4L571 237.1Z" fill="#153951" stroke="#153951"></path><path d="M545 460.6L589 451.6L548 445.4Z" fill="#297ea6" stroke="#297ea6"></path><path d="M581 431.4L650 451.6L581 421.4Z" fill="#1f5675" stroke="#1f5675"></path><path d="M589 472.3L589 451.6L545 460.6Z" fill="#1f5675" stroke="#1f5675"></path><path d="M318 224.3L291 259.1L352 263.1Z" fill="#113046" stroke="#113046"></path><path d="M301 350.9L354 456.6L351 343.7Z" fill="#225f81" stroke="#225f81"></path><path d="M378 449.6L385 478.4L439 487.3Z" fill="#27749a" stroke="#27749a"></path><path d="M351 463.4L354 456.6L304 464.6Z" fill="#297ea6" stroke="#297ea6"></path><path d="M488 118.6L459 145.6L494 154.4Z" fill="#091f30" stroke="#091f30"></path><path d="M459 145.6L428 123.4L403 182.3Z" fill="#27749a" stroke="#27749a"></path><path d="M354 456.6L385 478.4L378 449.6Z" fill="#297ea6" stroke="#297ea6"></path><path d="M556 128.4L488 118.6L533 163.3Z" fill="#1c4c69" stroke="#1c4c69"></path><path d="M533 163.3L488 118.6L494 154.4Z" fill="#0d273b" stroke="#0d273b"></path><path d="M346 482.3L351 463.4L304 464.6Z" fill="#225f81" stroke="#225f81"></path><path d="M354 456.6L351 463.4L385 478.4Z" fill="#1c4c69" stroke="#1c4c69"></path><path d="M450 517.4L522 498.4L478 452.4Z" fill="#27749a" stroke="#27749a"></path><path d="M631 219.4L638 204.3L628 216.1Z" fill="#1f5675" stroke="#1f5675"></path><path d="M628 216.1L556 128.4L533 163.3Z" fill="#19425d" stroke="#19425d"></path><path d="M675 258L638 204.3L631 219.4Z" fill="#153951" stroke="#153951"></path><path d="M428 123.4L382 131.7L378 158.4Z" fill="#27749a" stroke="#27749a"></path><path d="M378 158.4L337 161.6L375 202.3Z" fill="#19425d" stroke="#19425d"></path><path d="M236 200.4L237 260L291 259.1Z" fill="#225f81" stroke="#225f81"></path><path d="M640 148.6L556 128.4L628 216.1Z" fill="#27749a" stroke="#27749a"></path><path d="M345 135.4L337 161.6L378 158.4Z" fill="#113046" stroke="#113046"></path><path d="M522 498.4L589 472.3L545 460.6Z" fill="#19425d" stroke="#19425d"></path><path d="M669 391.6L665 365.9L637 371.9Z" fill="#25698d" stroke="#25698d"></path><path d="M676 365.7L665 365.9L669 391.6Z" fill="#1c4c69" stroke="#1c4c69"></path><path d="M637 371.9L665 365.9L630 357.7Z" fill="#091f30" stroke="#091f30"></path><path d="M641 284.1L675 258L631 219.4Z" fill="#297ea6" stroke="#297ea6"></path><path d="M665 365.9L679 307.9L623 345.7Z" fill="#113046" stroke="#113046"></path><path d="M679 307.9L675 258L641 284.1Z" fill="#1f5675" stroke="#1f5675"></path><path d="M418 523.3L450 517.4L439 487.3Z" fill="#19425d" stroke="#19425d"></path><path d="M439 487.3L450 517.4L478 452.4Z" fill="#225f81" stroke="#225f81"></path><path d="M418 523.3L439 487.3L385 478.4Z" fill="#1c4c69" stroke="#1c4c69"></path><path d="M637 371.9L581 421.4L650 451.6Z" fill="#27749a" stroke="#27749a"></path><path d="M665 365.9L676 365.7L679 307.9Z" fill="#297ea6" stroke="#297ea6"></path><path d="M700 338L685 306.1L679 307.9Z" fill="#1f5675" stroke="#1f5675"></path><path d="M679 307.9L685 306.1L675 258Z" fill="#225f81" stroke="#225f81"></path><path d="M344 490.3L346 482.3L304 464.6Z" fill="#153951" stroke="#153951"></path><path d="M351 463.4L346 482.3L385 478.4Z" fill="#091f30" stroke="#091f30"></path><path d="M650 451.6L581 431.4L589 451.6Z" fill="#297ea6" stroke="#297ea6"></path><path d="M333 89.9L345 135.4L382 131.7Z" fill="#297ea6" stroke="#297ea6"></path><path d="M382 131.7L345 135.4L378 158.4Z" fill="#27749a" stroke="#27749a"></path><path d="M236 200.4L291 259.1L318 224.3Z" fill="#1f5675" stroke="#1f5675"></path><path d="M434 48.7L405 103.6L428 123.4Z" fill="#225f81" stroke="#225f81"></path><path d="M428 123.4L405 103.6L382 131.7Z" fill="#0d273b" stroke="#0d273b"></path><path d="M434 48.7L428 123.4L488 118.6Z" fill="#1f5675" stroke="#1f5675"></path><path d="M392 548.1L418 523.3L385 478.4Z" fill="#091f30" stroke="#091f30"></path><path d="M304 464.6L354 456.6L301 350.9Z" fill="#225f81" stroke="#225f81"></path><path d="M346 482.3L344 490.3L385 478.4Z" fill="#27749a" stroke="#27749a"></path><path d="M559 90.6L547 98.6L565 92.9Z" fill="#25698d" stroke="#25698d"></path><path d="M556 128.4L547 98.6L488 118.6Z" fill="#19425d" stroke="#19425d"></path><path d="M669 391.6L690 364.7L676 365.7Z" fill="#1c4c69" stroke="#1c4c69"></path><path d="M676 365.7L700 338L679 307.9Z" fill="#153951" stroke="#153951"></path><path d="M215 288.1L249 353.7L290 329.9Z" fill="#297ea6" stroke="#297ea6"></path><path d="M290 329.9L249 353.7L301 350.9Z" fill="#1c4c69" stroke="#1c4c69"></path><path d="M237 260L290 329.9L291 259.1Z" fill="#225f81" stroke="#225f81"></path><path d="M333 89.9L332 129.4L345 135.4Z" fill="#1f5675" stroke="#1f5675"></path><path d="M345 135.4L332 129.4L337 161.6Z" fill="#19425d" stroke="#19425d"></path><path d="M598 503.3L650 451.6L589 472.3Z" fill="#27749a" stroke="#27749a"></path><path d="M589 472.3L650 451.6L589 451.6Z" fill="#1f5675" stroke="#1f5675"></path><path d="M669 391.6L709 428.4L690 364.7Z" fill="#19425d" stroke="#19425d"></path><path d="M260 432.4L304 464.6L301 350.9Z" fill="#27749a" stroke="#27749a"></path><path d="M690 364.7L700 338L676 365.7Z" fill="#091f30" stroke="#091f30"></path><path d="M767 253L708 193.3L675 258Z" fill="#19425d" stroke="#19425d"></path><path d="M522 498.4L598 503.3L589 472.3Z" fill="#27749a" stroke="#27749a"></path><path d="M607 519.1L598 503.3L595 570.1Z" fill="#0d273b" stroke="#0d273b"></path><path d="M598 503.3L522 498.4L553 585.1Z" fill="#225f81" stroke="#225f81"></path><path d="M249 353.7L246 364.7L301 350.9Z" fill="#19425d" stroke="#19425d"></path><path d="M679 194.4L640 148.6L638 204.3Z" fill="#27749a" stroke="#27749a"></path><path d="M638 204.3L640 148.6L628 216.1Z" fill="#27749a" stroke="#27749a"></path><path d="M565 92.9L547 98.6L556 128.4Z" fill="#153951" stroke="#153951"></path><path d="M491 52.7L485 52.9L488 118.6Z" fill="#1c4c69" stroke="#1c4c69"></path><path d="M640 148.6L565 92.9L556 128.4Z" fill="#25698d" stroke="#25698d"></path><path d="M708 193.3L679 194.4L675 258Z" fill="#27749a" stroke="#27749a"></path><path d="M675 258L679 194.4L638 204.3Z" fill="#1c4c69" stroke="#1c4c69"></path><path d="M621 67.7L565 90.7L565 92.9Z" fill="#225f81" stroke="#225f81"></path><path d="M565 92.9L565 90.7L559 90.6Z" fill="#091f30" stroke="#091f30"></path><path d="M277 156.6L318 224.3L337 161.6Z" fill="#0d273b" stroke="#0d273b"></path><path d="M214 335L236 378.6L246 364.7Z" fill="#225f81" stroke="#225f81"></path><path d="M246 364.7L260 432.4L301 350.9Z" fill="#0d273b" stroke="#0d273b"></path><path d="M246 364.7L236 378.6L260 432.4Z" fill="#091f30" stroke="#091f30"></path><path d="M214 335L246 364.7L249 353.7Z" fill="#297ea6" stroke="#297ea6"></path><path d="M332 129.4L277 156.6L337 161.6Z" fill="#19425d" stroke="#19425d"></path><path d="M461 565.1L522 498.4L450 517.4Z" fill="#091f30" stroke="#091f30"></path><path d="M598 503.3L632 528.3L650 451.6Z" fill="#113046" stroke="#113046"></path><path d="M392 548.1L452 559.3L418 523.3Z" fill="#27749a" stroke="#27749a"></path><path d="M418 523.3L452 559.3L450 517.4Z" fill="#1f5675" stroke="#1f5675"></path><path d="M366 557.1L392 548.1L344 490.3Z" fill="#1c4c69" stroke="#1c4c69"></path><path d="M344 490.3L392 548.1L385 478.4Z" fill="#091f30" stroke="#091f30"></path><path d="M366 557.1L344 490.3L310 541.1Z" fill="#091f30" stroke="#091f30"></path><path d="M491 52.7L547 98.6L559 90.6Z" fill="#091f30" stroke="#091f30"></path><path d="M491 52.7L488 118.6L547 98.6Z" fill="#27749a" stroke="#27749a"></path><path d="M350 72.9L333 89.9L382 131.7Z" fill="#27749a" stroke="#27749a"></path><path d="M332 129.4L264 138.4L277 156.6Z" fill="#19425d" stroke="#19425d"></path><path d="M452 584.1L461 565.1L452 559.3Z" fill="#19425d" stroke="#19425d"></path><path d="M452 559.3L461 565.1L450 517.4Z" fill="#1f5675" stroke="#1f5675"></path><path d="M581 36.7L491 52.7L559 90.6Z" fill="#153951" stroke="#153951"></path><path d="M185 248.3L215 288.1L237 260Z" fill="#297ea6" stroke="#297ea6"></path><path d="M237 260L215 288.1L290 329.9Z" fill="#225f81" stroke="#225f81"></path><path d="M215 288.1L214 335L249 353.7Z" fill="#153951" stroke="#153951"></path><path d="M236 378.6L174 443.4L260 432.4Z" fill="#25698d" stroke="#25698d"></path><path d="M350 72.9L382 131.7L405 103.6Z" fill="#225f81" stroke="#225f81"></path><path d="M238 191.3L318 224.3L277 156.6Z" fill="#297ea6" stroke="#297ea6"></path><path d="M238 191.3L236 200.4L318 224.3Z" fill="#297ea6" stroke="#297ea6"></path><path d="M679 194.4L670 140.6L640 148.6Z" fill="#19425d" stroke="#19425d"></path><path d="M640 148.6L621 67.7L565 92.9Z" fill="#297ea6" stroke="#297ea6"></path><path d="M476 0L463 27.9L492 0Z" fill="#1c4c69" stroke="#1c4c69"></path><path d="M264 138.4L238 191.3L277 156.6Z" fill="#1f5675" stroke="#1f5675"></path><path d="M236 200.4L222 210.1L237 260Z" fill="#27749a" stroke="#27749a"></path><path d="M463 27.9L434 48.7L485 52.9Z" fill="#297ea6" stroke="#297ea6"></path><path d="M485 52.9L434 48.7L488 118.6Z" fill="#19425d" stroke="#19425d"></path><path d="M750 295L675 258L685 306.1Z" fill="#0d273b" stroke="#0d273b"></path><path d="M679 194.4L715 153.4L670 140.6Z" fill="#0d273b" stroke="#0d273b"></path><path d="M434 48.7L396 54.7L405 103.6Z" fill="#297ea6" stroke="#297ea6"></path><path d="M396 54.7L350 72.9L405 103.6Z" fill="#153951" stroke="#153951"></path><path d="M701 446.4L669 391.6L650 451.6Z" fill="#25698d" stroke="#25698d"></path><path d="M701 446.4L709 428.4L669 391.6Z" fill="#1f5675" stroke="#1f5675"></path><path d="M690 364.7L745 370.7L700 338Z" fill="#091f30" stroke="#091f30"></path><path d="M700 338L750 295L685 306.1Z" fill="#113046" stroke="#113046"></path><path d="M632 528.3L701 446.4L650 451.6Z" fill="#297ea6" stroke="#297ea6"></path><path d="M238 191.3L222 210.1L236 200.4Z" fill="#25698d" stroke="#25698d"></path><path d="M302 91.7L332 129.4L333 89.9Z" fill="#25698d" stroke="#25698d"></path><path d="M302 91.7L264 138.4L332 129.4Z" fill="#25698d" stroke="#25698d"></path><path d="M238 191.3L217 211.3L222 210.1Z" fill="#225f81" stroke="#225f81"></path><path d="M310 541.1L344 490.3L304 464.6Z" fill="#113046" stroke="#113046"></path><path d="M392 548.1L452 584.1L452 559.3Z" fill="#27749a" stroke="#27749a"></path><path d="M624 569.1L632 528.3L607 519.1Z" fill="#19425d" stroke="#19425d"></path><path d="M607 519.1L632 528.3L598 503.3Z" fill="#153951" stroke="#153951"></path><path d="M195 166.4L217 211.3L238 191.3Z" fill="#225f81" stroke="#225f81"></path><path d="M222 210.1L217 211.3L237 260Z" fill="#27749a" stroke="#27749a"></path><path d="M308 24.9L302 91.7L333 89.9Z" fill="#25698d" stroke="#25698d"></path><path d="M308 24.9L333 89.9L350 72.9Z" fill="#0d273b" stroke="#0d273b"></path><path d="M453 600L452 584.1L391 600Z" fill="#297ea6" stroke="#297ea6"></path><path d="M461 565.1L553 585.1L522 498.4Z" fill="#27749a" stroke="#27749a"></path><path d="M745 370.7L750 295L700 338Z" fill="#27749a" stroke="#27749a"></path><path d="M763 397.6L745 370.7L709 428.4Z" fill="#225f81" stroke="#225f81"></path><path d="M709 428.4L745 370.7L690 364.7Z" fill="#0d273b" stroke="#0d273b"></path><path d="M581 36.7L559 90.6L565 90.7Z" fill="#153951" stroke="#153951"></path><path d="M491 52.7L463 27.9L485 52.9Z" fill="#153951" stroke="#153951"></path><path d="M434 48.7L387 0L396 54.7Z" fill="#25698d" stroke="#25698d"></path><path d="M396 54.7L387 0L350 72.9Z" fill="#25698d" stroke="#25698d"></path><path d="M258 516.3L304 464.6L260 432.4Z" fill="#225f81" stroke="#225f81"></path><path d="M258 516.3L310 541.1L304 464.6Z" fill="#153951" stroke="#153951"></path><path d="M453 600L471 600L452 584.1Z" fill="#225f81" stroke="#225f81"></path><path d="M136 349.9L192 356.9L214 335Z" fill="#297ea6" stroke="#297ea6"></path><path d="M214 335L192 356.9L236 378.6Z" fill="#25698d" stroke="#25698d"></path><path d="M136 349.9L214 335L215 288.1Z" fill="#297ea6" stroke="#297ea6"></path><path d="M678 77.9L640 148.6L670 140.6Z" fill="#19425d" stroke="#19425d"></path><path d="M678 77.9L621 67.7L640 148.6Z" fill="#297ea6" stroke="#297ea6"></path><path d="M542 600L553 585.1L461 565.1Z" fill="#27749a" stroke="#27749a"></path><path d="M745 178.3L715 153.4L708 193.3Z" fill="#19425d" stroke="#19425d"></path><path d="M708 193.3L715 153.4L679 194.4Z" fill="#1c4c69" stroke="#1c4c69"></path><path d="M553 585.1L595 570.1L598 503.3Z" fill="#1f5675" stroke="#1f5675"></path><path d="M452 584.1L392 548.1L391 600Z" fill="#1c4c69" stroke="#1c4c69"></path><path d="M452 584.1L471 600L461 565.1Z" fill="#225f81" stroke="#225f81"></path><path d="M391 600L392 548.1L366 557.1Z" fill="#153951" stroke="#153951"></path><path d="M182 245.1L185 248.3L217 211.3Z" fill="#25698d" stroke="#25698d"></path><path d="M217 211.3L185 248.3L237 260Z" fill="#113046" stroke="#113046"></path><path d="M621 67.7L581 36.7L565 90.7Z" fill="#091f30" stroke="#091f30"></path><path d="M476 0L453 15.9L463 27.9Z" fill="#113046" stroke="#113046"></path><path d="M463 27.9L453 15.9L434 48.7Z" fill="#225f81" stroke="#225f81"></path><path d="M195 166.4L182 245.1L217 211.3Z" fill="#25698d" stroke="#25698d"></path><path d="M136 349.9L159 371.7L192 356.9Z" fill="#113046" stroke="#113046"></path><path d="M200 506.1L258 516.3L260 432.4Z" fill="#091f30" stroke="#091f30"></path><path d="M471 600L542 600L461 565.1Z" fill="#1f5675" stroke="#1f5675"></path><path d="M553 585.1L582 600L595 570.1Z" fill="#113046" stroke="#113046"></path><path d="M624 569.1L645 554.3L632 528.3Z" fill="#225f81" stroke="#225f81"></path><path d="M632 528.3L724 551.3L701 446.4Z" fill="#225f81" stroke="#225f81"></path><path d="M750 433.4L763 397.6L709 428.4Z" fill="#153951" stroke="#153951"></path><path d="M624 569.1L607 519.1L595 570.1Z" fill="#27749a" stroke="#27749a"></path><path d="M794 278.1L767 253L750 295Z" fill="#25698d" stroke="#25698d"></path><path d="M750 295L767 253L675 258Z" fill="#0d273b" stroke="#0d273b"></path><path d="M582 600L624 569.1L595 570.1Z" fill="#297ea6" stroke="#297ea6"></path><path d="M352 600L366 557.1L310 541.1Z" fill="#25698d" stroke="#25698d"></path><path d="M352 600L391 600L366 557.1Z" fill="#27749a" stroke="#27749a"></path><path d="M767 253L745 178.3L708 193.3Z" fill="#25698d" stroke="#25698d"></path><path d="M731 101.7L678 77.9L670 140.6Z" fill="#19425d" stroke="#19425d"></path><path d="M159 371.7L175 379.6L192 356.9Z" fill="#1f5675" stroke="#1f5675"></path><path d="M192 356.9L175 379.6L236 378.6Z" fill="#297ea6" stroke="#297ea6"></path><path d="M750 433.4L709 428.4L701 446.4Z" fill="#0d273b" stroke="#0d273b"></path><path d="M745 370.7L777 314.9L750 295Z" fill="#1f5675" stroke="#1f5675"></path><path d="M756 518.1L750 433.4L701 446.4Z" fill="#0d273b" stroke="#0d273b"></path><path d="M832 346.7L777 314.9L745 370.7Z" fill="#1c4c69" stroke="#1c4c69"></path><path d="M200 506.1L258 529.3L258 516.3Z" fill="#225f81" stroke="#225f81"></path><path d="M258 516.3L258 529.3L310 541.1Z" fill="#225f81" stroke="#225f81"></path><path d="M492 0L463 27.9L491 52.7Z" fill="#153951" stroke="#153951"></path><path d="M453 15.9L387 0L434 48.7Z" fill="#113046" stroke="#113046"></path><path d="M505 0L492 0L491 52.7Z" fill="#25698d" stroke="#25698d"></path><path d="M731 101.7L670 140.6L715 153.4Z" fill="#091f30" stroke="#091f30"></path><path d="M621 67.7L646 45.7L581 36.7Z" fill="#27749a" stroke="#27749a"></path><path d="M525 1.9L505 0L491 52.7Z" fill="#1c4c69" stroke="#1c4c69"></path><path d="M525 1.9L491 52.7L581 36.7Z" fill="#225f81" stroke="#225f81"></path><path d="M223 102.6L195 166.4L264 138.4Z" fill="#25698d" stroke="#25698d"></path><path d="M264 138.4L195 166.4L238 191.3Z" fill="#091f30" stroke="#091f30"></path><path d="M576 0L525 1.9L581 36.7Z" fill="#1c4c69" stroke="#1c4c69"></path><path d="M542 600L582 600L553 585.1Z" fill="#091f30" stroke="#091f30"></path><path d="M624 569.1L646 600L645 554.3Z" fill="#0d273b" stroke="#0d273b"></path><path d="M308 600L352 600L310 541.1Z" fill="#25698d" stroke="#25698d"></path><path d="M678 77.9L646 45.7L621 67.7Z" fill="#091f30" stroke="#091f30"></path><path d="M139 262L215 288.1L185 248.3Z" fill="#1f5675" stroke="#1f5675"></path><path d="M175 379.6L174 443.4L236 378.6Z" fill="#25698d" stroke="#25698d"></path><path d="M139 262L185 248.3L182 245.1Z" fill="#19425d" stroke="#19425d"></path><path d="M476 0L387 0L453 15.9Z" fill="#1c4c69" stroke="#1c4c69"></path><path d="M302 91.7L223 102.6L264 138.4Z" fill="#091f30" stroke="#091f30"></path><path d="M221 83.9L223 102.6L256 48.7Z" fill="#1c4c69" stroke="#1c4c69"></path><path d="M735 51.9L675 56.9L678 77.9Z" fill="#19425d" stroke="#19425d"></path><path d="M678 77.9L675 56.9L646 45.7Z" fill="#1f5675" stroke="#1f5675"></path><path d="M777 314.9L794 278.1L750 295Z" fill="#153951" stroke="#153951"></path><path d="M767 253L785 215.4L745 178.3Z" fill="#1c4c69" stroke="#1c4c69"></path><path d="M796 304.1L794 278.1L777 314.9Z" fill="#1c4c69" stroke="#1c4c69"></path><path d="M832 346.7L745 370.7L763 397.6Z" fill="#297ea6" stroke="#297ea6"></path><path d="M832 346.7L796 312.9L777 314.9Z" fill="#1c4c69" stroke="#1c4c69"></path><path d="M796 312.9L796 304.1L777 314.9Z" fill="#25698d" stroke="#25698d"></path><path d="M634 0L576 0L581 36.7Z" fill="#297ea6" stroke="#297ea6"></path><path d="M525 1.9L576 0L505 0Z" fill="#19425d" stroke="#19425d"></path><path d="M634 0L581 36.7L646 45.7Z" fill="#1f5675" stroke="#1f5675"></path><path d="M137 386.9L174 443.4L175 379.6Z" fill="#25698d" stroke="#25698d"></path><path d="M794 278.1L785 215.4L767 253Z" fill="#25698d" stroke="#25698d"></path><path d="M756 120.4L731 101.7L715 153.4Z" fill="#25698d" stroke="#25698d"></path><path d="M331 0L308 24.9L350 72.9Z" fill="#27749a" stroke="#27749a"></path><path d="M756 120.4L715 153.4L745 178.3Z" fill="#225f81" stroke="#225f81"></path><path d="M223 102.6L211 102.6L195 166.4Z" fill="#225f81" stroke="#225f81"></path><path d="M213 85.7L211 102.6L223 102.6Z" fill="#091f30" stroke="#091f30"></path><path d="M296 600L310 541.1L271 600Z" fill="#091f30" stroke="#091f30"></path><path d="M296 600L308 600L310 541.1Z" fill="#0d273b" stroke="#0d273b"></path><path d="M174 443.4L200 506.1L260 432.4Z" fill="#1c4c69" stroke="#1c4c69"></path><path d="M132 190.3L182 245.1L195 166.4Z" fill="#0d273b" stroke="#0d273b"></path><path d="M132 190.3L139 262L182 245.1Z" fill="#25698d" stroke="#25698d"></path><path d="M256 48.7L223 102.6L302 91.7Z" fill="#0d273b" stroke="#0d273b"></path><path d="M308 24.9L256 48.7L302 91.7Z" fill="#113046" stroke="#113046"></path><path d="M139 262L136 349.9L215 288.1Z" fill="#1c4c69" stroke="#1c4c69"></path><path d="M159 371.7L137 386.9L175 379.6Z" fill="#1c4c69" stroke="#1c4c69"></path><path d="M387 0L331 0L350 72.9Z" fill="#113046" stroke="#113046"></path><path d="M308 24.9L227 0L256 48.7Z" fill="#297ea6" stroke="#297ea6"></path><path d="M582 600L646 600L624 569.1Z" fill="#153951" stroke="#153951"></path><path d="M645 554.3L724 551.3L632 528.3Z" fill="#225f81" stroke="#225f81"></path><path d="M271 600L310 541.1L258 529.3Z" fill="#1c4c69" stroke="#1c4c69"></path><path d="M793 131.6L756 120.4L745 178.3Z" fill="#091f30" stroke="#091f30"></path><path d="M676 16.9L646 45.7L675 56.9Z" fill="#091f30" stroke="#091f30"></path><path d="M207 61.7L213 85.7L221 83.9Z" fill="#153951" stroke="#153951"></path><path d="M221 83.9L213 85.7L223 102.6Z" fill="#225f81" stroke="#225f81"></path><path d="M123 156.4L132 190.3L195 166.4Z" fill="#27749a" stroke="#27749a"></path><path d="M136 349.9L137 386.9L159 371.7Z" fill="#1c4c69" stroke="#1c4c69"></path><path d="M174 443.4L149 509.3L200 506.1Z" fill="#27749a" stroke="#27749a"></path><path d="M331 0L318 0L308 24.9Z" fill="#27749a" stroke="#27749a"></path><path d="M676 16.9L675 56.9L735 51.9Z" fill="#225f81" stroke="#225f81"></path><path d="M662 0L634 0L646 45.7Z" fill="#113046" stroke="#113046"></path><path d="M687 600L724 551.3L645 554.3Z" fill="#297ea6" stroke="#297ea6"></path><path d="M750 433.4L794 462.6L763 397.6Z" fill="#25698d" stroke="#25698d"></path><path d="M200 506.1L224 559.1L258 529.3Z" fill="#225f81" stroke="#225f81"></path><path d="M196 556.1L224 559.1L200 506.1Z" fill="#19425d" stroke="#19425d"></path><path d="M724 551.3L756 518.1L701 446.4Z" fill="#225f81" stroke="#225f81"></path><path d="M224 559.1L271 600L258 529.3Z" fill="#0d273b" stroke="#0d273b"></path><path d="M785 215.4L805 190.3L745 178.3Z" fill="#19425d" stroke="#19425d"></path><path d="M853 226.3L805 190.3L785 215.4Z" fill="#091f30" stroke="#091f30"></path><path d="M853 226.3L785 215.4L794 278.1Z" fill="#27749a" stroke="#27749a"></path><path d="M853 226.3L794 278.1L866 280.1Z" fill="#0d273b" stroke="#0d273b"></path><path d="M137 386.9L145 448.4L174 443.4Z" fill="#091f30" stroke="#091f30"></path><path d="M778 546.3L760 517.3L756 518.1Z" fill="#113046" stroke="#113046"></path><path d="M756 518.1L760 517.3L750 433.4Z" fill="#091f30" stroke="#091f30"></path><path d="M735 51.9L678 77.9L731 101.7Z" fill="#1c4c69" stroke="#1c4c69"></path><path d="M733 600L731 554.1L724 551.3Z" fill="#19425d" stroke="#19425d"></path><path d="M724 551.3L731 554.1L756 518.1Z" fill="#25698d" stroke="#25698d"></path><path d="M760 517.3L794 462.6L750 433.4Z" fill="#27749a" stroke="#27749a"></path><path d="M796 312.9L832 346.7L796 304.1Z" fill="#113046" stroke="#113046"></path><path d="M793 131.6L752 85.6L756 120.4Z" fill="#0d273b" stroke="#0d273b"></path><path d="M756 120.4L752 85.6L731 101.7Z" fill="#091f30" stroke="#091f30"></path><path d="M136 349.9L114 345.7L137 386.9Z" fill="#091f30" stroke="#091f30"></path><path d="M137 386.9L121 401.7L145 448.4Z" fill="#25698d" stroke="#25698d"></path><path d="M139 262L114 345.7L136 349.9Z" fill="#27749a" stroke="#27749a"></path><path d="M123 156.4L195 166.4L142 107.6Z" fill="#27749a" stroke="#27749a"></path><path d="M139 262L78 272L114 345.7Z" fill="#27749a" stroke="#27749a"></path><path d="M256 48.7L207 61.7L221 83.9Z" fill="#27749a" stroke="#27749a"></path><path d="M213 85.7L142 107.6L211 102.6Z" fill="#25698d" stroke="#25698d"></path><path d="M227 0L207 61.7L256 48.7Z" fill="#113046" stroke="#113046"></path><path d="M646 600L687 600L645 554.3Z" fill="#297ea6" stroke="#297ea6"></path><path d="M91 392.7L121 401.7L137 386.9Z" fill="#27749a" stroke="#27749a"></path><path d="M854 416.7L832 346.7L763 397.6Z" fill="#113046" stroke="#113046"></path><path d="M718 0L662 0L676 16.9Z" fill="#091f30" stroke="#091f30"></path><path d="M676 16.9L662 0L646 45.7Z" fill="#1c4c69" stroke="#1c4c69"></path><path d="M805 190.3L793 131.6L745 178.3Z" fill="#25698d" stroke="#25698d"></path><path d="M136 465.6L174 443.4L145 448.4Z" fill="#113046" stroke="#113046"></path><path d="M149 509.3L180 533.3L200 506.1Z" fill="#0d273b" stroke="#0d273b"></path><path d="M224 559.1L188 600L271 600Z" fill="#225f81" stroke="#225f81"></path><path d="M752 85.6L735 51.9L731 101.7Z" fill="#19425d" stroke="#19425d"></path><path d="M750 0L735 51.9L792 36.7Z" fill="#1f5675" stroke="#1f5675"></path><path d="M132 190.3L106 250.3L139 262Z" fill="#1c4c69" stroke="#1c4c69"></path><path d="M180 533.3L196 556.1L200 506.1Z" fill="#225f81" stroke="#225f81"></path><path d="M129 469.6L136 465.6L145 448.4Z" fill="#153951" stroke="#153951"></path><path d="M805 190.3L817 164.6L793 131.6Z" fill="#25698d" stroke="#25698d"></path><path d="M853 226.3L817 164.6L805 190.3Z" fill="#153951" stroke="#153951"></path><path d="M95 454.4L129 469.6L145 448.4Z" fill="#19425d" stroke="#19425d"></path><path d="M136 465.6L149 509.3L174 443.4Z" fill="#25698d" stroke="#25698d"></path><path d="M173 600L188 600L196 556.1Z" fill="#1c4c69" stroke="#1c4c69"></path><path d="M95 454.4L145 448.4L121 401.7Z" fill="#225f81" stroke="#225f81"></path><path d="M129 469.6L149 509.3L136 465.6Z" fill="#1c4c69" stroke="#1c4c69"></path><path d="M142 107.6L195 166.4L211 102.6Z" fill="#0d273b" stroke="#0d273b"></path><path d="M92 217.1L90 243.1L106 250.3Z" fill="#113046" stroke="#113046"></path><path d="M815 498.4L816 472.6L794 462.6Z" fill="#27749a" stroke="#27749a"></path><path d="M794 462.6L854 416.7L763 397.6Z" fill="#225f81" stroke="#225f81"></path><path d="M815 498.4L794 462.6L760 517.3Z" fill="#0d273b" stroke="#0d273b"></path><path d="M778 546.3L756 518.1L731 554.1Z" fill="#225f81" stroke="#225f81"></path><path d="M207 61.7L142 107.6L213 85.7Z" fill="#25698d" stroke="#25698d"></path><path d="M92 217.1L106 250.3L132 190.3Z" fill="#0d273b" stroke="#0d273b"></path><path d="M106 250.3L85 262L139 262Z" fill="#27749a" stroke="#27749a"></path><path d="M114 345.7L91 392.7L137 386.9Z" fill="#225f81" stroke="#225f81"></path><path d="M779 600L778 546.3L731 554.1Z" fill="#297ea6" stroke="#297ea6"></path><path d="M90 243.1L85 262L106 250.3Z" fill="#27749a" stroke="#27749a"></path><path d="M70 371.9L91 392.7L114 345.7Z" fill="#091f30" stroke="#091f30"></path><path d="M0 246.1L78 272L85 262Z" fill="#0d273b" stroke="#0d273b"></path><path d="M123 156.4L92 217.1L132 190.3Z" fill="#1f5675" stroke="#1f5675"></path><path d="M65 146.4L92 217.1L123 156.4Z" fill="#1c4c69" stroke="#1c4c69"></path><path d="M866 280.1L796 304.1L832 346.7Z" fill="#091f30" stroke="#091f30"></path><path d="M866 280.1L794 278.1L796 304.1Z" fill="#225f81" stroke="#225f81"></path><path d="M687 600L733 600L724 551.3Z" fill="#19425d" stroke="#19425d"></path><path d="M778 546.3L815 498.4L760 517.3Z" fill="#27749a" stroke="#27749a"></path><path d="M816 472.6L829 471.4L794 462.6Z" fill="#113046" stroke="#113046"></path><path d="M815 498.4L829 471.4L816 472.6Z" fill="#25698d" stroke="#25698d"></path><path d="M318 0L227 0L308 24.9Z" fill="#113046" stroke="#113046"></path><path d="M207 61.7L148 45.9L142 107.6Z" fill="#1f5675" stroke="#1f5675"></path><path d="M750 0L718 0L735 51.9Z" fill="#091f30" stroke="#091f30"></path><path d="M735 51.9L718 0L676 16.9Z" fill="#19425d" stroke="#19425d"></path><path d="M792 36.7L752 85.6L793 131.6Z" fill="#297ea6" stroke="#297ea6"></path><path d="M39 305L0 253L0 292.9Z" fill="#0d273b" stroke="#0d273b"></path><path d="M85 262L78 272L139 262Z" fill="#1c4c69" stroke="#1c4c69"></path><path d="M886 324.9L866 280.1L832 346.7Z" fill="#113046" stroke="#113046"></path><path d="M114 126.7L121 124.6L128 66.7Z" fill="#297ea6" stroke="#297ea6"></path><path d="M142 107.6L121 124.6L123 156.4Z" fill="#153951" stroke="#153951"></path><path d="M829 471.4L854 416.7L794 462.6Z" fill="#113046" stroke="#113046"></path><path d="M128 66.7L121 124.6L142 107.6Z" fill="#091f30" stroke="#091f30"></path><path d="M121 124.6L114 126.7L123 156.4Z" fill="#19425d" stroke="#19425d"></path><path d="M39 305L78 272L0 253Z" fill="#0d273b" stroke="#0d273b"></path><path d="M91 392.7L95 454.4L121 401.7Z" fill="#0d273b" stroke="#0d273b"></path><path d="M129 469.6L103 484.4L149 509.3Z" fill="#225f81" stroke="#225f81"></path><path d="M45 448.6L95 454.4L91 392.7Z" fill="#153951" stroke="#153951"></path><path d="M858 120.7L833 126.4L817 164.6Z" fill="#1f5675" stroke="#1f5675"></path><path d="M817 164.6L833 126.4L793 131.6Z" fill="#27749a" stroke="#27749a"></path><path d="M858 120.7L817 164.6L897 157.6Z" fill="#091f30" stroke="#091f30"></path><path d="M65 354.9L70 371.9L114 345.7Z" fill="#1c4c69" stroke="#1c4c69"></path><path d="M173 600L196 556.1L180 533.3Z" fill="#297ea6" stroke="#297ea6"></path><path d="M196 556.1L188 600L224 559.1Z" fill="#225f81" stroke="#225f81"></path><path d="M173 600L180 533.3L106 563.1Z" fill="#153951" stroke="#153951"></path><path d="M106 563.1L103 484.4L59 539.1Z" fill="#27749a" stroke="#27749a"></path><path d="M95 454.4L103 484.4L129 469.6Z" fill="#153951" stroke="#153951"></path><path d="M78 272L65 354.9L114 345.7Z" fill="#297ea6" stroke="#297ea6"></path><path d="M45 448.6L103 484.4L95 454.4Z" fill="#113046" stroke="#113046"></path><path d="M227 0L197 0L207 61.7Z" fill="#25698d" stroke="#25698d"></path><path d="M902 349L886 324.9L832 346.7Z" fill="#1f5675" stroke="#1f5675"></path><path d="M866 280.1L900 221.4L853 226.3Z" fill="#25698d" stroke="#25698d"></path><path d="M792 36.7L735 51.9L752 85.6Z" fill="#0d273b" stroke="#0d273b"></path><path d="M176 0L148 45.9L207 61.7Z" fill="#225f81" stroke="#225f81"></path><path d="M106 563.1L180 533.3L149 509.3Z" fill="#297ea6" stroke="#297ea6"></path><path d="M148 45.9L128 66.7L142 107.6Z" fill="#0d273b" stroke="#0d273b"></path><path d="M85 262L90 243.1L0 246.1Z" fill="#27749a" stroke="#27749a"></path><path d="M833 126.4L792 36.7L793 131.6Z" fill="#091f30" stroke="#091f30"></path><path d="M733 600L779 600L731 554.1Z" fill="#297ea6" stroke="#297ea6"></path><path d="M845 546.1L849 537.1L815 498.4Z" fill="#091f30" stroke="#091f30"></path><path d="M815 498.4L849 537.1L829 471.4Z" fill="#19425d" stroke="#19425d"></path><path d="M900 368.7L832 346.7L854 416.7Z" fill="#113046" stroke="#113046"></path><path d="M197 0L176 0L207 61.7Z" fill="#297ea6" stroke="#297ea6"></path><path d="M113 -1.1L75 65.9L128 66.7Z" fill="#113046" stroke="#113046"></path><path d="M902 349L832 346.7L900 368.7Z" fill="#27749a" stroke="#27749a"></path><path d="M902 349L900 313.9L886 324.9Z" fill="#1c4c69" stroke="#1c4c69"></path><path d="M886 324.9L900 313.9L866 280.1Z" fill="#0d273b" stroke="#0d273b"></path><path d="M792 36.7L767 -2.1L750 0Z" fill="#0d273b" stroke="#0d273b"></path><path d="M750 0L767 -2.1L718 0Z" fill="#297ea6" stroke="#297ea6"></path><path d="M718 0L767 -2.1L662 0Z" fill="#091f30" stroke="#091f30"></path><path d="M662 0L767 -2.1L634 0Z" fill="#1c4c69" stroke="#1c4c69"></path><path d="M634 0L767 -2.1L576 0Z" fill="#297ea6" stroke="#297ea6"></path><path d="M576 0L767 -2.1L505 0Z" fill="#091f30" stroke="#091f30"></path><path d="M505 0L767 -2.1L492 0Z" fill="#091f30" stroke="#091f30"></path><path d="M492 0L0 -7.1L476 0Z" fill="#27749a" stroke="#27749a"></path><path d="M476 0L0 -7.1L387 0Z" fill="#1c4c69" stroke="#1c4c69"></path><path d="M0 -7.1L318 0L331 0Z" fill="#1f5675" stroke="#1f5675"></path><path d="M0 -7.1L227 0L318 0Z" fill="#225f81" stroke="#225f81"></path><path d="M0 -7.1L197 0L227 0Z" fill="#153951" stroke="#153951"></path><path d="M0 -7.1L113 -1.1L197 0Z" fill="#1c4c69" stroke="#1c4c69"></path><path d="M197 0L113 -1.1L176 0Z" fill="#153951" stroke="#153951"></path><path d="M900 313.9L900 285.1L866 280.1Z" fill="#25698d" stroke="#25698d"></path><path d="M900 285.1L900 277L866 280.1Z" fill="#225f81" stroke="#225f81"></path><path d="M897 157.6L817 164.6L853 226.3Z" fill="#19425d" stroke="#19425d"></path><path d="M833 126.4L876 82.9L792 36.7Z" fill="#297ea6" stroke="#297ea6"></path><path d="M792 36.7L823 0L767 -2.1Z" fill="#091f30" stroke="#091f30"></path><path d="M65 146.4L123 156.4L67 139.4Z" fill="#25698d" stroke="#25698d"></path><path d="M78 272L39 305L65 354.9Z" fill="#1f5675" stroke="#1f5675"></path><path d="M21 427.4L91 392.7L70 371.9Z" fill="#091f30" stroke="#091f30"></path><path d="M900 368.7L854 416.7L900 438.6Z" fill="#0d273b" stroke="#0d273b"></path><path d="M900 313.9L902 349L900 285.1Z" fill="#19425d" stroke="#19425d"></path><path d="M900 285.1L902 349L900 277Z" fill="#113046" stroke="#113046"></path><path d="M900 438.6L854 416.7L900 459.4Z" fill="#091f30" stroke="#091f30"></path><path d="M902 349L900 221.4L900 277Z" fill="#25698d" stroke="#25698d"></path><path d="M900 277L900 221.4L866 280.1Z" fill="#0d273b" stroke="#0d273b"></path><path d="M903 94.7L900 221.3L900 221.4Z" fill="#0d273b" stroke="#0d273b"></path><path d="M900 221.4L900 221.3L853 226.3Z" fill="#1f5675" stroke="#1f5675"></path><path d="M67 139.4L114 126.7L73 86.6Z" fill="#25698d" stroke="#25698d"></path><path d="M67 139.4L123 156.4L114 126.7Z" fill="#0d273b" stroke="#0d273b"></path><path d="M903 94.7L900 217.3L900 221.3Z" fill="#1f5675" stroke="#1f5675"></path><path d="M900 221.3L900 217.3L853 226.3Z" fill="#1c4c69" stroke="#1c4c69"></path><path d="M73 86.6L114 126.7L128 66.7Z" fill="#1c4c69" stroke="#1c4c69"></path><path d="M113 -1.1L160 0L176 0Z" fill="#091f30" stroke="#091f30"></path><path d="M176 0L160 0L148 45.9Z" fill="#0d273b" stroke="#0d273b"></path><path d="M845 546.1L815 498.4L778 546.3Z" fill="#0d273b" stroke="#0d273b"></path><path d="M819 600L845 546.1L778 546.3Z" fill="#1f5675" stroke="#1f5675"></path><path d="M45 448.6L91 392.7L21 427.4Z" fill="#19425d" stroke="#19425d"></path><path d="M103 484.4L106 563.1L149 509.3Z" fill="#25698d" stroke="#25698d"></path><path d="M900 459.4L829 471.4L867 539.3Z" fill="#113046" stroke="#113046"></path><path d="M900 459.4L854 416.7L829 471.4Z" fill="#1f5675" stroke="#1f5675"></path><path d="M900 368.7L900 438.6L902 349Z" fill="#19425d" stroke="#19425d"></path><path d="M21 427.4L70 371.9L65 354.9Z" fill="#27749a" stroke="#27749a"></path><path d="M900 217.3L897 157.6L853 226.3Z" fill="#19425d" stroke="#19425d"></path><path d="M858 120.7L876 82.9L833 126.4Z" fill="#225f81" stroke="#225f81"></path><path d="M779 600L819 600L778 546.3Z" fill="#0d273b" stroke="#0d273b"></path><path d="M867 539.3L829 471.4L849 537.1Z" fill="#0d273b" stroke="#0d273b"></path><path d="M867 539.3L849 537.1L845 546.1Z" fill="#153951" stroke="#153951"></path><path d="M900 438.6L900 459.4L902 349Z" fill="#297ea6" stroke="#297ea6"></path><path d="M75 65.9L73 86.6L128 66.7Z" fill="#1c4c69" stroke="#1c4c69"></path><path d="M67 139.4L39 163.3L65 146.4Z" fill="#19425d" stroke="#19425d"></path><path d="M65 146.4L39 163.3L92 217.1Z" fill="#27749a" stroke="#27749a"></path><path d="M11 160.6L39 163.3L20 107.7Z" fill="#27749a" stroke="#27749a"></path><path d="M862 600L867 539.3L845 546.1Z" fill="#091f30" stroke="#091f30"></path><path d="M900 113.6L876 82.9L858 120.7Z" fill="#1c4c69" stroke="#1c4c69"></path><path d="M113 -1.1L128 66.7L148 45.9Z" fill="#25698d" stroke="#25698d"></path><path d="M20 107.7L39 163.3L67 139.4Z" fill="#0d273b" stroke="#0d273b"></path><path d="M0 292.9L65 354.9L39 305Z" fill="#27749a" stroke="#27749a"></path><path d="M0 427.7L21 427.4L65 354.9Z" fill="#091f30" stroke="#091f30"></path><path d="M45 448.6L53 519.3L103 484.4Z" fill="#1f5675" stroke="#1f5675"></path><path d="M824 0L823 0L792 36.7Z" fill="#27749a" stroke="#27749a"></path><path d="M0 477.6L53 519.3L45 448.6Z" fill="#153951" stroke="#153951"></path><path d="M876 82.9L824 0L792 36.7Z" fill="#153951" stroke="#153951"></path><path d="M823 0L824 0L767 -2.1Z" fill="#1c4c69" stroke="#1c4c69"></path><path d="M897 157.6L900 113.6L858 120.7Z" fill="#1f5675" stroke="#1f5675"></path><path d="M876 82.9L900 49.7L824 0Z" fill="#19425d" stroke="#19425d"></path><path d="M903 94.7L900 113.6L897 157.6Z" fill="#153951" stroke="#153951"></path><path d="M903 94.7L897 157.6L900 217.3Z" fill="#297ea6" stroke="#297ea6"></path><path d="M0 253L78 272L0 246.1Z" fill="#153951" stroke="#153951"></path><path d="M43 536.3L59 539.1L53 519.3Z" fill="#27749a" stroke="#27749a"></path><path d="M53 519.3L59 539.1L103 484.4Z" fill="#113046" stroke="#113046"></path><path d="M106 563.1L92 600L173 600Z" fill="#153951" stroke="#153951"></path><path d="M0 -7.1L331 0L387 0Z" fill="#27749a" stroke="#27749a"></path><path d="M160 0L113 -1.1L148 45.9Z" fill="#297ea6" stroke="#297ea6"></path><path d="M0 246.1L90 243.1L0 231.3Z" fill="#153951" stroke="#153951"></path><path d="M90 243.1L92 217.1L0 231.3Z" fill="#297ea6" stroke="#297ea6"></path><path d="M0 231.3L92 217.1L39 163.3Z" fill="#225f81" stroke="#225f81"></path><path d="M0 170.4L0 231.3L39 163.3Z" fill="#091f30" stroke="#091f30"></path><path d="M53 583.1L92 600L106 563.1Z" fill="#25698d" stroke="#25698d"></path><path d="M902 349L903 94.7L900 221.4Z" fill="#27749a" stroke="#27749a"></path><path d="M900 113.6L903 94.7L876 82.9Z" fill="#225f81" stroke="#225f81"></path><path d="M0 170.4L11 160.6L0 148.6Z" fill="#19425d" stroke="#19425d"></path><path d="M20 107.7L67 139.4L73 86.6Z" fill="#297ea6" stroke="#297ea6"></path><path d="M0 495.4L43 536.3L53 519.3Z" fill="#091f30" stroke="#091f30"></path><path d="M59 539.1L53 583.1L106 563.1Z" fill="#0d273b" stroke="#0d273b"></path><path d="M0 292.9L0 427.7L65 354.9Z" fill="#1f5675" stroke="#1f5675"></path><path d="M21 427.4L0 477.6L45 448.6Z" fill="#297ea6" stroke="#297ea6"></path><path d="M819 600L862 600L845 546.1Z" fill="#091f30" stroke="#091f30"></path><path d="M867 539.3L900 556.1L900 459.4Z" fill="#113046" stroke="#113046"></path><path d="M903 94.7L900 68.9L876 82.9Z" fill="#25698d" stroke="#25698d"></path><path d="M20 107.7L73 86.6L75 65.9Z" fill="#297ea6" stroke="#297ea6"></path><path d="M11 160.6L0 170.4L39 163.3Z" fill="#0d273b" stroke="#0d273b"></path><path d="M57 16.9L20 107.7L75 65.9Z" fill="#153951" stroke="#153951"></path><path d="M900 559.3L900 556.1L867 539.3Z" fill="#25698d" stroke="#25698d"></path><path d="M900 459.4L900 556.1L902 349Z" fill="#091f30" stroke="#091f30"></path><path d="M862 600L900 559.3L867 539.3Z" fill="#0d273b" stroke="#0d273b"></path><path d="M900 556.1L900 559.3L902 349Z" fill="#225f81" stroke="#225f81"></path><path d="M20 107.7L0 148.6L11 160.6Z" fill="#297ea6" stroke="#297ea6"></path><path d="M25 600L53 583.1L0 562.3Z" fill="#091f30" stroke="#091f30"></path><path d="M43 536.3L53 583.1L59 539.1Z" fill="#153951" stroke="#153951"></path><path d="M0 427.7L0 477.6L21 427.4Z" fill="#1f5675" stroke="#1f5675"></path><path d="M903 94.7L900 49.7L900 68.9Z" fill="#0d273b" stroke="#0d273b"></path><path d="M900 68.9L900 49.7L876 82.9Z" fill="#1c4c69" stroke="#1c4c69"></path><path d="M113 -1.1L57 16.9L75 65.9Z" fill="#297ea6" stroke="#297ea6"></path><path d="M20 107.7L0 117.7L0 148.6Z" fill="#091f30" stroke="#091f30"></path><path d="M0 477.6L0 495.4L53 519.3Z" fill="#25698d" stroke="#25698d"></path><path d="M113 -1.1L68 0L57 16.9Z" fill="#153951" stroke="#153951"></path><path d="M0 0L0 117.7L20 107.7Z" fill="#1f5675" stroke="#1f5675"></path><path d="M862 600L900 600L900 559.3Z" fill="#113046" stroke="#113046"></path><path d="M900 559.3L900 600L902 349Z" fill="#27749a" stroke="#27749a"></path><path d="M903 94.7L900 0L900 49.7Z" fill="#1c4c69" stroke="#1c4c69"></path><path d="M900 49.7L900 0L824 0Z" fill="#225f81" stroke="#225f81"></path><path d="M824 0L900 0L767 -2.1Z" fill="#1f5675" stroke="#1f5675"></path><path d="M0 562.3L53 583.1L43 536.3Z" fill="#27749a" stroke="#27749a"></path><path d="M53 583.1L25 600L92 600Z" fill="#1f5675" stroke="#1f5675"></path><path d="M0 495.4L0 562.3L43 536.3Z" fill="#27749a" stroke="#27749a"></path><path d="M0 562.3L0 588.1L25 600Z" fill="#225f81" stroke="#225f81"></path><path d="M0 588.1L0 600L25 600Z" fill="#27749a" stroke="#27749a"></path><path d="M0 -7.1L0 0L57 16.9Z" fill="#27749a" stroke="#27749a"></path><path d="M57 16.9L0 0L20 107.7Z" fill="#091f30" stroke="#091f30"></path><path d="M0 -7.1L57 16.9L68 0Z" fill="#0d273b" stroke="#0d273b"></path><path d="M113 -1.1L0 -7.1L68 0Z" fill="#091f30" stroke="#091f30"></path><path d="M767 -2.1L0 -7.1L492 0Z" fill="#297ea6" stroke="#297ea6"></path></g></svg>